<svg width="201" height="49" viewBox="0 0 201 49" fill="none" xmlns="http://www.w3.org/2000/svg">
<path d="M189.712 39.124C188.512 39.124 187.708 38.2 187.708 36.82C187.708 35.44 188.512 34.516 189.712 34.516C190.912 34.516 191.728 35.428 191.728 36.82C191.728 38.212 190.912 39.124 189.712 39.124ZM189.016 43L194.752 34.6H195.928L190.192 43H189.016ZM189.712 38.284C190.36 38.284 190.744 37.756 190.744 36.82C190.744 35.884 190.36 35.356 189.712 35.356C189.088 35.356 188.68 35.896 188.68 36.82C188.68 37.744 189.088 38.284 189.712 38.284ZM195.22 43.084C194.02 43.084 193.216 42.16 193.216 40.78C193.216 39.4 194.02 38.476 195.22 38.476C196.42 38.476 197.236 39.4 197.236 40.78C197.236 42.16 196.42 43.084 195.22 43.084ZM195.22 42.244C195.856 42.244 196.252 41.704 196.252 40.78C196.252 39.856 195.856 39.316 195.22 39.316C194.584 39.316 194.188 39.844 194.188 40.78C194.188 41.716 194.584 42.244 195.22 42.244Z" fill="#00090B"/>
<path d="M183.27 43.12C181.278 43.12 179.766 41.56 179.766 38.8C179.766 36.04 181.278 34.48 183.27 34.48C185.274 34.48 186.786 36.04 186.786 38.8C186.786 41.56 185.274 43.12 183.27 43.12ZM183.27 41.764C184.422 41.764 185.214 40.828 185.214 38.8C185.214 36.772 184.422 35.836 183.27 35.836C182.13 35.836 181.338 36.772 181.338 38.8C181.338 40.828 182.13 41.764 183.27 41.764Z" fill="#00090B"/>
<path d="M175.841 36.592V37.864H173.597V43H172.097V37.864H169.841V36.592H175.841Z" fill="#00090B"/>
<path d="M166.098 43.084C164.13 43.084 162.69 41.716 162.69 39.796C162.69 37.876 164.13 36.52 166.098 36.52C168.09 36.52 169.518 37.876 169.518 39.796C169.518 41.716 168.09 43.084 166.098 43.084ZM166.098 41.8C167.19 41.8 168.006 41.02 168.006 39.796C168.006 38.572 167.19 37.792 166.098 37.792C165.018 37.792 164.202 38.572 164.202 39.796C164.202 41.02 165.018 41.8 166.098 41.8Z" fill="#00090B"/>
<path d="M153.061 38.704C154.705 38.704 155.581 39.484 155.581 40.816C155.581 42.22 154.597 43.024 152.845 43.012L149.941 43V36.592H151.441V38.692L153.061 38.704ZM156.409 43V36.592H157.909V43H156.409ZM152.713 41.908C153.589 41.92 154.069 41.536 154.069 40.792C154.069 40.06 153.601 39.748 152.713 39.736L151.441 39.724V41.896L152.713 41.908Z" fill="#00090B"/>
<path d="M147.929 43H146.573V38.752L144.413 42.328H143.765L141.641 38.74V43H140.273V36.592H141.845L144.125 40.6L146.513 36.592H147.917L147.929 43Z" fill="#00090B"/>
<path d="M134.955 35.836C133.671 35.836 132.963 35.236 132.951 34.072H133.947C133.959 34.648 134.319 35.008 134.943 35.008C135.555 35.008 135.939 34.648 135.951 34.072H136.971C136.947 35.236 136.239 35.836 134.955 35.836ZM131.847 43V36.592H133.347V40.816L136.887 36.592H138.255V43H136.755V38.776L133.227 43H131.847Z" fill="#00090B"/>
<path d="M127.075 36.52C128.923 36.52 129.991 37.396 129.991 39.244V43H128.575V42.22C128.215 42.772 127.519 43.084 126.559 43.084C125.095 43.084 124.171 42.28 124.171 41.164C124.171 40.096 124.891 39.256 126.835 39.256H128.491V39.16C128.491 38.284 127.963 37.768 126.895 37.768C126.175 37.768 125.431 38.008 124.951 38.404L124.363 37.312C125.047 36.784 126.043 36.52 127.075 36.52ZM126.871 41.992C127.603 41.992 128.239 41.656 128.491 40.996V40.252H126.943C125.923 40.252 125.647 40.636 125.647 41.104C125.647 41.644 126.103 41.992 126.871 41.992Z" fill="#00090B"/>
<path d="M121.478 38.62C122.474 38.932 123.086 39.676 123.086 40.648C123.086 42.208 121.406 43.12 119.486 43.12C118.394 43.12 117.218 42.82 116.234 42.184L116.738 41.044C117.494 41.56 118.442 41.812 119.294 41.812C120.494 41.812 121.502 41.32 121.502 40.42C121.502 39.664 120.842 39.292 119.786 39.292H117.83V38.068H119.666C120.602 38.068 121.154 37.66 121.154 37C121.154 36.196 120.314 35.764 119.258 35.764C118.538 35.764 117.698 35.968 116.966 36.4L116.474 35.14C117.362 34.66 118.358 34.444 119.294 34.444C121.142 34.444 122.738 35.32 122.738 36.808C122.738 37.648 122.258 38.296 121.478 38.62Z" fill="#00090B"/>
<path d="M111.937 39.832C111.937 39.952 111.925 40.132 111.913 40.276H106.885C107.065 41.212 107.845 41.812 108.961 41.812C109.681 41.812 110.245 41.584 110.701 41.116L111.505 42.04C110.929 42.724 110.029 43.084 108.925 43.084C106.777 43.084 105.385 41.704 105.385 39.796C105.385 37.888 106.789 36.52 108.697 36.52C110.569 36.52 111.937 37.828 111.937 39.832ZM108.697 37.72C107.725 37.72 107.017 38.344 106.873 39.28H110.509C110.389 38.356 109.681 37.72 108.697 37.72Z" fill="#00090B"/>
<path d="M99.0728 38.704C100.717 38.704 101.593 39.484 101.593 40.816C101.593 42.22 100.609 43.024 98.8568 43.012L95.9528 43V36.592H97.4528V38.692L99.0728 38.704ZM102.421 43V36.592H103.921V43H102.421ZM98.7248 41.908C99.6008 41.92 100.081 41.536 100.081 40.792C100.081 40.06 99.6128 39.748 98.7248 39.736L97.4528 39.724V41.896L98.7248 41.908Z" fill="#00090B"/>
<path d="M87.7145 43V36.592H89.2145V39.196H92.4425V36.592H93.9425V43H92.4425V40.468H89.2145V43H87.7145Z" fill="#00090B"/>
<path d="M83.6579 43.084C81.6299 43.084 80.1899 41.716 80.1899 39.796C80.1899 37.876 81.6299 36.52 83.6579 36.52C84.9059 36.52 85.9019 37.036 86.3939 38.008L85.2419 38.68C84.8579 38.068 84.2819 37.792 83.6459 37.792C82.5419 37.792 81.7019 38.56 81.7019 39.796C81.7019 41.044 82.5419 41.8 83.6459 41.8C84.2819 41.8 84.8579 41.524 85.2419 40.912L86.3939 41.584C85.9019 42.544 84.9059 43.084 83.6579 43.084Z" fill="#00090B"/>
<path d="M78.4358 36.592H79.8758L76.8758 43.516C76.2878 44.968 75.4718 45.412 74.4038 45.412C73.7678 45.412 73.0958 45.196 72.6878 44.824L73.2878 43.72C73.5758 43.996 73.9838 44.164 74.3918 44.164C74.9198 44.164 75.2318 43.912 75.5198 43.276L75.6278 43.024L72.8318 36.592H74.3918L76.4078 41.332L78.4358 36.592Z" fill="#00090B"/>
<path d="M71.3691 43L69.4371 40.432H68.2731V43H66.7731V36.592H68.2731V39.184H69.4731L71.3691 36.592H72.9771L70.6491 39.676L73.1331 43H71.3691Z" fill="#00090B"/>
<path d="M63.52 38.632C64.576 38.92 65.164 39.616 65.164 40.672C65.164 42.124 64.072 43 61.984 43H58V34.6H61.756C63.628 34.6 64.756 35.368 64.756 36.76C64.756 37.66 64.3 38.296 63.52 38.632ZM59.536 35.8V38.188H61.624C62.632 38.188 63.172 37.78 63.172 37C63.172 36.208 62.632 35.8 61.624 35.8H59.536ZM61.936 41.8C63.016 41.8 63.592 41.392 63.592 40.552C63.592 39.712 63.016 39.328 61.936 39.328H59.536V41.8H61.936Z" fill="#00090B"/>
<path d="M193.442 9.86H197.942L190.652 26.99C189.092 30.89 186.872 32.06 183.962 32.06C182.312 32.06 180.512 31.52 179.462 30.59L181.172 27.26C181.892 27.89 182.882 28.28 183.812 28.28C185.102 28.28 185.822 27.71 186.452 26.27L186.512 26.12L179.522 9.86H184.352L188.882 20.81L193.442 9.86Z" fill="#00090B"/>
<path d="M170.892 9.62C175.422 9.62 178.932 12.86 178.932 17.93C178.932 23 175.422 26.24 170.892 26.24C168.882 26.24 167.232 25.61 166.032 24.29V31.82H161.352V9.86H165.822V11.72C166.992 10.31 168.732 9.62 170.892 9.62ZM170.082 22.4C172.422 22.4 174.192 20.72 174.192 17.93C174.192 15.14 172.422 13.46 170.082 13.46C167.742 13.46 165.972 15.14 165.972 17.93C165.972 20.72 167.742 22.4 170.082 22.4Z" fill="#00090B"/>
<path d="M155.21 26.24C153.59 26.24 152.3 25.01 152.3 23.3C152.3 21.56 153.59 20.42 155.21 20.42C156.83 20.42 158.12 21.56 158.12 23.3C158.12 25.01 156.83 26.24 155.21 26.24Z" fill="#00090B"/>
<path d="M142.87 26.24C137.62 26.24 133.87 22.79 133.87 17.93C133.87 13.07 137.62 9.62 142.87 9.62C146.26 9.62 148.93 11.09 150.1 13.73L146.47 15.68C145.6 14.15 144.31 13.46 142.84 13.46C140.47 13.46 138.61 15.11 138.61 17.93C138.61 20.75 140.47 22.4 142.84 22.4C144.31 22.4 145.6 21.74 146.47 20.18L150.1 22.16C148.93 24.74 146.26 26.24 142.87 26.24Z" fill="#00090B"/>
<path d="M123.355 9.62C128.275 9.62 131.125 11.9 131.125 16.79V26H126.745V23.99C125.875 25.46 124.195 26.24 121.825 26.24C118.045 26.24 115.795 24.14 115.795 21.35C115.795 18.5 117.805 16.52 122.725 16.52H126.445C126.445 14.51 125.245 13.34 122.725 13.34C121.015 13.34 119.245 13.91 118.075 14.84L116.395 11.57C118.165 10.31 120.775 9.62 123.355 9.62ZM122.995 23.09C124.555 23.09 125.905 22.37 126.445 20.9V19.25H123.235C121.045 19.25 120.355 20.06 120.355 21.14C120.355 22.31 121.345 23.09 122.995 23.09Z" fill="#00090B"/>
<path d="M109.56 26L105.24 19.88H102.81V26H98.1297V9.86H102.81V16.13H105.33L109.71 9.86H114.69L109.05 17.6L115.08 26H109.56Z" fill="#00090B"/>
<path d="M94.5423 17.99C94.5423 18.35 94.4823 18.86 94.4523 19.25H82.2423C82.6923 21.26 84.4023 22.49 86.8623 22.49C88.5723 22.49 89.8023 21.98 90.9123 20.93L93.4023 23.63C91.9023 25.34 89.6523 26.24 86.7423 26.24C81.1623 26.24 77.5323 22.73 77.5323 17.93C77.5323 13.1 81.2223 9.62 86.1423 9.62C90.8823 9.62 94.5423 12.8 94.5423 17.99ZM86.1723 13.16C84.0423 13.16 82.5123 14.45 82.1823 16.52H90.1323C89.8023 14.48 88.2723 13.16 86.1723 13.16Z" fill="#00090B"/>
<path d="M71.65 26L66.19 17.54H62.83V26H58V5H62.83V13.49H66.31L71.83 5H76.96L70.09 15.14L77.17 26H71.65Z" fill="#00090B"/>
<mask id="mask0_2584_565" style="mask-type:alpha" maskUnits="userSpaceOnUse" x="0" y="0" width="48" height="48">
<path d="M48 24C48 37.2548 37.2548 48 24 48C10.7452 48 0 37.2548 0 24C0 10.7452 10.7452 0 24 0C37.2548 0 48 10.7452 48 24Z" fill="white"/>
</mask>
<g mask="url(#mask0_2584_565)">
<path d="M48 24C48 37.2548 37.2548 48 24 48C10.7452 48 0 37.2548 0 24C0 10.7452 10.7452 0 24 0C37.2548 0 48 10.7452 48 24Z" fill="#00090B"/>
<path d="M18.7213 60.3898C18.5381 60.3898 18.3413 60.3812 18.1343 60.364C16.8704 60.2639 16.2139 60.0534 15.8729 59.636C15.6337 59.3427 15.5489 58.9459 15.6048 58.3663C15.6217 58.1558 15.6935 57.9538 15.8128 57.7809C15.9321 57.6081 16.0945 57.4707 16.2834 57.383C16.5833 57.2553 16.9065 57.194 17.2315 57.2032C17.5565 57.2124 17.8758 57.2919 18.1682 57.4365C18.3152 57.5292 18.4563 57.6312 18.5906 57.7418C18.326 56.1082 17.4252 49.8064 19.0063 48.3228C19.3727 47.9778 20.8894 47.9243 21.2592 48.2383C21.3118 48.2792 21.347 48.339 21.3574 48.4055C21.3678 48.472 21.3527 48.54 21.3152 48.5954C20.2498 50.3205 20.6536 54.7729 20.8707 57.1691C20.9346 57.709 20.9697 58.2521 20.9759 58.7958C20.8843 59.8758 20.1667 60.3898 18.7213 60.3898ZM17.1486 57.4572C16.8851 57.4524 16.6237 57.5072 16.3835 57.6176C16.2343 57.6882 16.1068 57.7987 16.0144 57.9372C15.9221 58.0758 15.8685 58.2372 15.8593 58.4043C15.8084 58.9114 15.8729 59.2444 16.0697 59.4842C16.3598 59.8292 16.9841 60.0293 18.1597 60.1224C20.3261 60.295 20.6688 59.4997 20.7231 58.789C20.7126 58.2565 20.6747 57.7251 20.6094 57.1967C20.3906 54.7712 19.9818 50.2549 21.0912 48.4626C21.0929 48.457 21.0929 48.4509 21.0912 48.4453C21.0912 48.4453 21.0437 48.3849 20.8028 48.3384C20.2498 48.2297 19.3558 48.3246 19.1539 48.5109C17.5897 49.972 18.6856 56.9138 18.8587 57.9454C18.862 57.9808 18.8545 58.0163 18.8372 58.0472C18.8199 58.0781 18.7936 58.1028 18.762 58.1179C18.7334 58.1284 18.7026 58.1309 18.6728 58.1251C18.6429 58.1193 18.6151 58.1055 18.5923 58.0851C18.4172 57.9188 18.2256 57.7714 18.0206 57.6452C17.7504 57.5076 17.4506 57.4412 17.1486 57.452V57.4572Z" fill="#00090B"/>
<path d="M7.68768 26.9164L12.5464 46.0873C12.5464 46.0873 16.7028 50.055 25.0698 49.8239C33.4368 49.5927 36.1478 46.7515 36.1478 46.7515L40.7469 26.8975L7.68768 26.9164Z" fill="#E7525B"/>
<path d="M24.3658 49.9603C20.379 49.9603 17.4272 48.9959 15.6187 48.1593C13.5388 47.1915 12.504 46.2203 12.4667 46.1789L12.4412 46.1547L12.4311 46.1185L7.53333 26.7975L40.9098 26.7803L36.2598 46.8137L36.236 46.8396C36.124 46.9569 33.3944 49.7153 25.0732 49.9447L24.3658 49.9603ZM12.6601 46.0184C13.0265 46.3462 17.1965 49.9189 25.0681 49.6963C29.3585 49.5756 32.1187 48.7561 33.6794 48.0903C35.1961 47.4434 35.9035 46.812 36.0375 46.686L40.5925 27.0201L7.85057 27.039L12.6601 46.0184Z" fill="#00090B"/>
<path d="M22.4506 8.31106C17.8786 8.75786 14.1871 10.2501 10.7958 14.4886C6.25266 20.1676 7.68787 26.9092 7.68787 26.9092C7.68787 26.9092 11.2607 32.6261 23.7518 32.4847C37.6188 32.326 40.7471 26.8902 40.7471 26.8902C40.7471 26.8902 42.5556 21.2113 37.0793 14.2971C33.5032 9.80671 27.9896 7.76938 22.4506 8.31106Z" fill="#FFD98E"/>
<path d="M23.324 32.621C19.7767 32.621 14.8977 32.1225 10.9771 29.8609C8.52399 28.4498 7.62316 27.0369 7.58414 26.9783L7.56718 26.9369C7.55191 26.8679 6.17098 20.0624 10.7006 14.4007C13.7882 10.5417 17.2999 8.68029 22.4402 8.17657C28.2201 7.61246 33.7285 9.87233 37.1775 14.223C42.6333 21.1061 40.8843 26.8731 40.8656 26.93L40.8554 26.9559C40.8232 27.0128 40.0276 28.3601 37.51 29.7401C33.3299 32.0311 27.723 32.5658 23.755 32.6107L23.324 32.621ZM7.80808 26.8662C8.04898 27.2215 11.8423 32.5003 23.755 32.364C37.0876 32.2122 40.4636 27.1232 40.6366 26.8437C40.7282 26.528 42.2245 20.994 36.9875 14.3886C33.5945 10.1035 28.1658 7.87813 22.4673 8.43533L22.4555 8.3094L22.4673 8.43533C17.3983 8.93215 13.9391 10.7659 10.8974 14.568C6.57304 19.9675 7.71647 26.428 7.80468 26.8662H7.80808Z" fill="#00090B"/>
<path d="M14.0306 47.226L10.049 29.2454L10.2915 29.1885L14.2749 47.1708L14.0306 47.226Z" fill="#00090B"/>
<path d="M12.8028 30.5527L12.5568 30.5938L15.361 47.9691L15.607 47.928L12.8028 30.5527Z" fill="#00090B"/>
<path d="M14.9375 31.2876L14.6904 31.3213L16.9846 48.713L17.2317 48.6793L14.9375 31.2876Z" fill="#00090B"/>
<path d="M16.9903 31.7825L16.7421 31.8062L18.3417 49.143L18.5899 49.1193L16.9903 31.7825Z" fill="#00090B"/>
<path d="M18.9924 32.1367L18.7438 32.1553L19.9979 49.5198L20.2465 49.5012L18.9924 32.1367Z" fill="#00090B"/>
<path d="M22.212 49.7652L21.0114 32.4816L21.2606 32.4644L22.4613 49.7463L22.212 49.7652Z" fill="#00090B"/>
<path d="M23.5318 32.4935L23.2827 32.5029L23.9238 49.9486L24.1729 49.9391L23.5318 32.4935Z" fill="#00090B"/>
<path d="M25.5338 32.4424L25.2845 32.4448L25.4457 49.8363L25.695 49.834L25.5338 32.4424Z" fill="#00090B"/>
<path d="M27.6048 32.2772L27.3566 49.6953L27.6059 49.699L27.854 32.2809L27.6048 32.2772Z" fill="#00090B"/>
<path d="M30.0333 31.9834L29.4669 49.3472L29.716 49.3556L30.2825 31.9918L30.0333 31.9834Z" fill="#00090B"/>
<path d="M32.1398 31.5133L31.0934 48.9595L31.3423 48.9749L32.3886 31.5287L32.1398 31.5133Z" fill="#00090B"/>
<path d="M34.3011 30.7502L32.7396 48.4023L32.9896 48.4252L34.5511 30.773L34.3011 30.7502Z" fill="#00090B"/>
<path d="M36.0876 30.2556L33.8387 48.1074L34.0859 48.1396L36.3349 30.2878L36.0876 30.2556Z" fill="#00090B"/>
<path d="M38.2015 29.116L35.0198 47.4829L35.2653 47.5269L38.447 29.16L38.2015 29.116Z" fill="#00090B"/>
<path d="M24.3294 12.389C22.7519 12.4034 21.194 12.0331 19.7862 11.3091C19.7593 11.2908 19.7404 11.2626 19.7335 11.2305C19.7265 11.1984 19.732 11.1647 19.7489 11.1366C19.7571 11.1223 19.768 11.1098 19.781 11.0999C19.794 11.0899 19.8088 11.0826 19.8246 11.0784C19.8403 11.0743 19.8567 11.0733 19.8728 11.0756C19.889 11.0779 19.9045 11.0834 19.9185 11.0918C21.4788 11.8936 23.2233 12.2513 24.9672 12.1268C26.6248 12.0055 28.2214 11.4407 29.5952 10.4897C29.6215 10.4696 29.6547 10.4609 29.6873 10.4656C29.7199 10.4703 29.7493 10.488 29.7691 10.5147C29.7889 10.5415 29.7974 10.5752 29.7928 10.6083C29.7882 10.6415 29.7708 10.6714 29.7445 10.6915C28.3329 11.6734 26.6901 12.2562 24.9842 12.3804C24.7569 12.3821 24.5397 12.389 24.3294 12.389Z" fill="#00090B"/>
<path d="M19.7138 4.68719C17.315 7.92517 20.5621 11.089 21.1949 11.7393C21.1949 11.7393 22.5809 12.3931 24.7744 12.2672C25.7386 12.2172 26.6895 12.017 27.594 11.6738C29.0648 10.549 30.1726 6.25874 27.8875 5.08568C26.7559 4.50605 25.3037 5.00288 24.0483 4.16794C22.5147 3.14841 20.7114 3.3399 19.7138 4.68719Z" fill="#991D27"/>
<path d="M24.2113 12.41C22.3452 12.41 21.195 11.8804 21.1424 11.8545L21.1068 11.8286L21.0644 11.7872C17.8699 8.55094 18.5197 6.09442 19.6139 4.61085C20.6487 3.2118 22.4979 2.98582 24.1163 4.06054C24.7797 4.50217 25.5125 4.55737 26.2217 4.60912C26.8341 4.6557 27.4092 4.69883 27.9436 4.97139C28.7358 5.38023 29.2075 6.17895 29.3008 7.27265C29.4416 8.89768 28.6782 11.0006 27.6671 11.7751L27.6399 11.7907C26.7229 12.1409 25.758 12.3446 24.7797 12.3944C24.5846 12.4048 24.3946 12.41 24.2113 12.41ZM21.2663 11.6319C21.4359 11.7078 22.771 12.2547 24.7678 12.1408C25.7121 12.0892 26.6436 11.8944 27.5313 11.5629C28.3796 10.9057 29.2024 9.00119 29.0582 7.29508C28.9954 6.59469 28.7342 5.66142 27.835 5.1991C27.3481 4.94896 26.7934 4.90756 26.2064 4.85408C25.4667 4.79888 24.7016 4.74195 23.9823 4.2641C22.4758 3.26701 20.7692 3.46884 19.8158 4.75403C18.7741 6.15997 18.177 8.48884 21.2425 11.5957L21.2663 11.6319Z" fill="#00090B"/>
<path d="M23.8026 6.26026C23.1681 6.25638 22.5475 6.07171 22.0111 5.72721C21.9976 5.7178 21.9861 5.7058 21.9772 5.69187C21.9683 5.67793 21.9621 5.66235 21.9591 5.64601C21.9561 5.62968 21.9563 5.6129 21.9597 5.59664C21.9631 5.58038 21.9696 5.56495 21.9789 5.55125C21.9881 5.53754 21.9999 5.52582 22.0136 5.51676C22.0273 5.50769 22.0426 5.50146 22.0587 5.49842C22.0748 5.49537 22.0913 5.49558 22.1073 5.49902C22.1233 5.50246 22.1384 5.50907 22.1519 5.51847C22.7718 5.90736 23.5042 6.06812 24.2267 5.97389C25.3447 5.80138 25.5686 5.51157 25.5703 5.50985C25.5896 5.48401 25.6176 5.46637 25.6489 5.46031C25.6803 5.45426 25.7127 5.46023 25.7399 5.47707C25.7669 5.49537 25.7857 5.52368 25.7924 5.55593C25.799 5.58818 25.793 5.6218 25.7756 5.64958C25.7518 5.68925 25.5058 6.03772 24.2606 6.22748C24.1089 6.24961 23.9558 6.26057 23.8026 6.26026Z" fill="#00090B"/>
<path d="M25.7993 -6.81928C26.1114 -6.97626 26.8867 -6.44321 26.8867 -5.90498C26.8867 -5.52029 25.9469 -3.95391 25.1309 -0.13457C24.3148 3.68477 24.1723 6.09299 24.1723 6.09299C23.9586 6.11223 23.744 6.12029 23.5294 6.11714C23.3971 6.11714 23.8687 1.95968 24.8051 -1.77513C25.7416 -5.50994 25.102 -6.45874 25.7993 -6.81928Z" fill="#683614"/>
<path d="M23.6388 6.24625H23.4573L23.4149 6.19277C23.2317 5.9409 23.8458 1.53504 24.6754 -1.80128C24.9972 -3.03688 25.1934 -4.30284 25.2607 -5.57922C25.3082 -6.33481 25.3336 -6.7126 25.7425 -6.92651C25.9121 -7.01449 26.153 -6.97137 26.4109 -6.80748C26.6687 -6.6436 27.0097 -6.28996 27.0046 -5.90009C27.0046 -5.75345 26.9113 -5.52057 26.7451 -5.0962C26.0992 -3.48123 25.5978 -1.81033 25.2471 -0.103797C24.443 3.66034 24.2903 6.08236 24.2886 6.10651V6.21519L24.18 6.22554C24.1614 6.22209 23.8797 6.24625 23.6388 6.24625ZM23.6236 5.99266C23.7712 5.99266 23.9408 5.98231 24.0477 5.97541C24.236 3.9107 24.555 1.8605 25.0028 -0.16245C25.3563 -1.88332 25.8622 -3.56813 26.5144 -5.19625C26.6198 -5.42358 26.7006 -5.66189 26.7553 -5.90699C26.7553 -6.17438 26.511 -6.45211 26.2802 -6.59702C26.0818 -6.72123 25.924 -6.74193 25.8561 -6.7057C25.5847 -6.56425 25.5592 -6.33653 25.5168 -5.56887C25.4473 -4.27694 25.2489 -2.99553 24.9248 -1.74435C24.0613 1.69719 23.6134 5.38198 23.6236 5.99266Z" fill="#00090B"/>
<path d="M27.5336 8.72207C27.1521 9.01188 27.0961 9.72089 27.5099 9.78817C27.8491 9.84337 28.1238 9.50353 28.2035 9.31032C28.4206 8.78244 27.9033 8.44433 27.5336 8.72207Z" fill="#D66066"/>
<path d="M27.5818 9.9292C27.5513 9.93093 27.5207 9.93093 27.4902 9.9292C27.3988 9.91396 27.3142 9.87056 27.2477 9.80485C27.1813 9.73915 27.1363 9.6543 27.1188 9.56176C27.0872 9.39057 27.102 9.21384 27.1618 9.0506C27.2215 8.88736 27.324 8.7438 27.458 8.63539C27.5589 8.55494 27.6834 8.51123 27.8116 8.51123C27.9397 8.51123 28.0642 8.55494 28.1651 8.63539C28.27 8.72272 28.3423 8.84394 28.3701 8.97889C28.3979 9.11384 28.3794 9.25439 28.3178 9.37718C28.2211 9.59971 27.926 9.9292 27.5818 9.9292ZM27.8158 8.75787C27.7407 8.7586 27.6679 8.78469 27.6089 8.83205C27.5129 8.90922 27.4392 9.01137 27.3956 9.12769C27.352 9.244 27.3402 9.37015 27.3613 9.49276C27.3682 9.53597 27.3883 9.57588 27.4188 9.60684C27.4492 9.63779 27.4884 9.65823 27.5309 9.66526C27.7887 9.71012 28.0261 9.4203 28.0888 9.26332C28.1281 9.19218 28.1421 9.10946 28.1286 9.02904C28.115 8.94862 28.0746 8.8754 28.0142 8.8217C27.9579 8.7756 27.888 8.75008 27.8158 8.74924V8.75787Z" fill="#00090B"/>
<path d="M21.0133 5.86162C20.8336 5.6132 20.1349 5.24231 19.6804 6.00652C19.2259 6.77074 19.5447 7.71953 20.335 7.65398C21.1252 7.58843 21.3949 6.38604 21.0133 5.86162Z" fill="#D66066"/>
<path d="M20.2591 7.78496C20.1083 7.78748 19.9595 7.74959 19.8276 7.6751C19.6958 7.60061 19.5855 7.49215 19.5079 7.36059C19.3907 7.14005 19.3348 6.8912 19.3461 6.64076C19.3575 6.39032 19.4357 6.14776 19.5723 5.93912C19.6439 5.79393 19.7512 5.67 19.8837 5.57934C20.0162 5.48867 20.1694 5.43434 20.3286 5.4216C20.4788 5.41848 20.6277 5.44991 20.7642 5.51353C20.9008 5.57716 21.0214 5.67134 21.1172 5.78904C21.3529 6.11336 21.3766 6.67918 21.1748 7.13461C21.1078 7.30881 20.9956 7.46128 20.8502 7.5758C20.7048 7.69032 20.5316 7.7626 20.349 7.78496H20.2591ZM20.3676 5.67691H20.3405C20.2226 5.68908 20.1097 5.73178 20.0126 5.80093C19.9156 5.87009 19.8375 5.9634 19.786 6.07195C19.6752 6.24134 19.6107 6.43764 19.5991 6.64075C19.5874 6.84385 19.6291 7.04645 19.7198 7.22776C19.7814 7.33162 19.8711 7.41519 19.9782 7.46844C20.0853 7.52168 20.2052 7.54234 20.3235 7.52793C20.4624 7.50926 20.5937 7.45276 20.7036 7.36438C20.8134 7.27601 20.8977 7.15907 20.9476 7.02593C21.1172 6.65676 21.1002 6.18754 20.9171 5.9374C20.8485 5.85729 20.7642 5.79271 20.6695 5.74784C20.5749 5.70297 20.472 5.6788 20.3676 5.67691Z" fill="#00090B"/>
<path d="M20.4398 18.6016C19.1866 18.8069 19.8089 21.7517 20.9044 21.6378C21.7659 21.5481 21.8982 20.7753 21.7523 19.9282C21.6387 19.3607 21.1181 18.4895 20.4398 18.6016Z" fill="#00090B"/>
<path d="M27.6681 21.3152C28.9281 21.4774 29.1452 18.474 28.0633 18.2687C27.2154 18.1083 26.8762 18.8052 26.7846 19.6695C26.7253 20.2405 26.9796 21.2238 27.6681 21.3152Z" fill="#00090B"/>
<path d="M18.0156 11.7012C17.9947 11.7029 17.9738 11.7029 17.9529 11.7012L16.5182 11.3269C16.4582 11.3063 16.4081 11.2634 16.3778 11.2069C16.3476 11.1503 16.3395 11.0842 16.3551 11.0218C16.3708 10.9594 16.4091 10.9053 16.4623 10.8704C16.5155 10.8354 16.5797 10.8223 16.642 10.8335L18.0784 11.2096C18.1382 11.224 18.1908 11.2605 18.2258 11.312C18.2608 11.3634 18.2759 11.4263 18.2681 11.4884C18.2603 11.5505 18.2302 11.6075 18.1836 11.6484C18.137 11.6893 18.0772 11.7111 18.0156 11.7098V11.7012Z" fill="#D66066"/>
<path d="M31.4474 13.8472C31.3892 13.8472 31.3328 13.8265 31.288 13.7886L30.1484 12.826C30.0974 12.783 30.0652 12.7211 30.059 12.654C30.0528 12.5869 30.0731 12.52 30.1154 12.468C30.1576 12.4161 30.2185 12.3834 30.2845 12.3771C30.3504 12.3708 30.4162 12.3914 30.4672 12.4344L31.6068 13.397C31.6576 13.44 31.6896 13.5018 31.6956 13.5688C31.7017 13.6357 31.6813 13.7024 31.639 13.7541C31.616 13.7832 31.5868 13.8067 31.5536 13.8228C31.5205 13.8389 31.4842 13.8473 31.4474 13.8472Z" fill="#D66066"/>
<path d="M23.7462 15.1428C23.7021 15.1426 23.6587 15.1305 23.6206 15.1078C23.5825 15.0851 23.551 15.0525 23.5292 15.0135L22.8017 13.7024C22.7688 13.6438 22.7602 13.5744 22.7777 13.5094C22.7952 13.4443 22.8374 13.3891 22.8949 13.3557C22.9525 13.3223 23.0208 13.3135 23.0847 13.3313C23.1486 13.3491 23.203 13.392 23.2358 13.4505L23.9633 14.7633C23.9953 14.8218 24.0035 14.8907 23.986 14.9552C23.9686 15.0198 23.9269 15.0747 23.87 15.1083C23.8323 15.1302 23.7897 15.1421 23.7462 15.1428Z" fill="#991D27"/>
<path d="M28.4456 14.5424C28.408 14.5424 28.3708 14.5336 28.3371 14.5165C28.3067 14.5021 28.2795 14.4817 28.2571 14.4564C28.2347 14.4311 28.2175 14.4015 28.2066 14.3693C28.1956 14.3371 28.1912 14.303 28.1935 14.269C28.1959 14.235 28.2049 14.2018 28.2201 14.1715L28.8628 12.8138C28.877 12.7838 28.897 12.757 28.9214 12.7348C28.9459 12.7126 28.9744 12.6955 29.0053 12.6846C29.0363 12.6736 29.0691 12.6689 29.1018 12.6708C29.1345 12.6727 29.1665 12.6812 29.196 12.6957C29.2255 12.7102 29.2519 12.7304 29.2737 12.7553C29.2955 12.7802 29.3123 12.8092 29.3231 12.8407C29.3339 12.8722 29.3385 12.9055 29.3366 12.9388C29.3347 12.9721 29.3264 13.0046 29.3122 13.0347L28.6695 14.394C28.6495 14.4376 28.618 14.4745 28.5784 14.5008C28.5388 14.527 28.4928 14.5414 28.4456 14.5424Z" fill="#991D27"/>
<path d="M20.4532 15.3828C20.4094 15.3823 20.3664 15.3702 20.3287 15.3475C20.291 15.3248 20.2599 15.2924 20.2384 15.2536C20.2169 15.2148 20.2058 15.1709 20.2063 15.1263C20.2068 15.0818 20.2188 15.0381 20.2412 14.9998L21.0094 13.7112C21.0435 13.6544 21.0982 13.6136 21.1616 13.5974C21.2251 13.5813 21.2922 13.5912 21.3486 13.6249C21.4034 13.6605 21.4426 13.7162 21.4581 13.7805C21.4736 13.8447 21.4641 13.9126 21.4316 13.9699L20.6634 15.2586C20.6417 15.2958 20.611 15.3268 20.5742 15.3485C20.5374 15.3703 20.4957 15.3821 20.4532 15.3828Z" fill="#D66066"/>
<path d="M15.1089 12.9982C15.0438 12.9977 14.9814 12.9716 14.9349 12.9252C14.8883 12.8789 14.8614 12.816 14.8596 12.7498L14.841 11.6699C14.8402 11.6366 14.8458 11.6034 14.8577 11.5723C14.8695 11.5413 14.8872 11.5129 14.9098 11.4888C14.9324 11.4647 14.9594 11.4453 14.9894 11.4318C15.0193 11.4184 15.0516 11.411 15.0843 11.4102C15.117 11.4094 15.1496 11.4152 15.1801 11.4272C15.2107 11.4392 15.2386 11.4572 15.2623 11.4802C15.286 11.5032 15.305 11.5307 15.3183 11.5612C15.3315 11.5917 15.3387 11.6245 15.3395 11.6578L15.3633 12.7377C15.3642 12.771 15.3586 12.8041 15.3469 12.8353C15.3352 12.8664 15.3176 12.8949 15.2951 12.919C15.2725 12.9432 15.2456 12.9627 15.2157 12.9763C15.1857 12.9898 15.1535 12.9973 15.1208 12.9982H15.1089Z" fill="#991D27"/>
<path d="M31.3161 11.8891C31.2695 11.8895 31.2238 11.8765 31.1841 11.8517C31.1444 11.827 31.1123 11.7914 31.0914 11.749C31.0706 11.7066 31.0619 11.6591 31.0662 11.6119C31.0706 11.5647 31.0878 11.5197 31.116 11.482L31.7367 10.6436C31.7755 10.5919 31.8324 10.5574 31.8957 10.5474C31.9589 10.5374 32.0235 10.5528 32.0758 10.5902C32.1288 10.6309 32.1638 10.6914 32.173 10.7584C32.1822 10.8253 32.165 10.8932 32.125 10.9472L31.5043 11.7856C31.4827 11.8162 31.4545 11.8414 31.4219 11.8593C31.3893 11.8772 31.3531 11.8874 31.3161 11.8891Z" fill="#991D27"/>
<path d="M26.686 14.0195H26.6724L25.7245 13.9712C25.6917 13.9696 25.6596 13.9615 25.6299 13.9473C25.6003 13.9331 25.5736 13.9131 25.5516 13.8885C25.5295 13.8638 25.5125 13.8349 25.5014 13.8035C25.4903 13.7721 25.4855 13.7388 25.4871 13.7055C25.4881 13.6727 25.4956 13.6404 25.509 13.6104C25.5224 13.5805 25.5414 13.5536 25.565 13.5311C25.5886 13.5087 25.6164 13.4912 25.6467 13.4797C25.6769 13.4682 25.7091 13.4629 25.7414 13.464L26.6911 13.5123C26.7585 13.5139 26.8226 13.5427 26.8692 13.5924C26.9158 13.642 26.9411 13.7085 26.9395 13.7771C26.9379 13.8457 26.9096 13.9109 26.8608 13.9583C26.812 14.0057 26.7467 14.0314 26.6792 14.0298L26.686 14.0195Z" fill="#D66066"/>
<path d="M18.0649 13.8197C18.0025 13.818 17.9429 13.7927 17.8978 13.7487C17.8528 13.7047 17.8254 13.6452 17.8212 13.5818C17.817 13.5184 17.8361 13.4557 17.8749 13.4059C17.9137 13.3561 17.9694 13.3228 18.031 13.3126L18.8789 13.1918C18.9446 13.1827 19.0111 13.2004 19.0639 13.2412C19.1167 13.2819 19.1514 13.3424 19.1604 13.4092C19.1694 13.476 19.1519 13.5437 19.1119 13.5974C19.0718 13.6511 19.0124 13.6864 18.9467 13.6955L18.0988 13.8163L18.0649 13.8197Z" fill="#991D27"/>
<path d="M20.6771 25.0238C19.9103 25.9605 21.7933 28.7828 24.394 28.6465C26.647 28.5326 27.9566 26.773 27.9974 25.7449C28.0347 24.9065 27.2085 24.4097 25.8954 24.9445C24.5824 25.4792 23.3507 25.3257 22.7044 25.0204C22.058 24.715 21.2403 24.3372 20.6771 25.0238Z" fill="#991D27"/>
<path d="M24.2222 28.783C22.5936 28.783 21.1923 27.6548 20.6274 26.499C20.3135 25.8573 20.2982 25.2915 20.5833 24.9464C21.216 24.1736 22.144 24.6187 22.7581 24.9119C23.4215 25.2294 24.6344 25.3277 25.8508 24.8326C26.6057 24.5255 27.2809 24.5273 27.7068 24.8326C27.8485 24.937 27.9613 25.0767 28.0344 25.2384C28.1075 25.4001 28.1384 25.5782 28.1241 25.7555C28.0783 26.775 26.7957 28.6554 24.402 28.7779L24.2222 28.783ZM21.4756 24.7653C21.3413 24.7642 21.2086 24.7948 21.0879 24.8547C20.9673 24.9146 20.8619 25.0021 20.78 25.1103C20.5646 25.3743 20.5934 25.8521 20.8564 26.3903C21.406 27.5151 22.7921 28.6105 24.3935 28.5295C25.5692 28.4691 27.8035 27.4616 27.8798 25.7486C27.8925 25.6136 27.8702 25.4776 27.8151 25.3542C27.7601 25.2307 27.6742 25.124 27.5659 25.0448C27.2114 24.7877 26.621 24.7964 25.9475 25.0707C24.6616 25.5882 23.3689 25.4847 22.658 25.1448C22.2237 24.9378 21.8251 24.7653 21.4756 24.7653Z" fill="#00090B"/>
<path d="M24.0229 26.3953C23.8083 26.3833 23.6012 26.3108 23.4248 26.1859C23.2484 26.061 23.1097 25.8886 23.0241 25.6881C22.966 25.5082 22.9362 25.3202 22.9359 25.1309C23.2959 25.2382 23.6683 25.2962 24.0433 25.3034C24.394 25.3028 24.7443 25.2763 25.0913 25.224C25.0809 25.4594 25.0232 25.6901 24.9217 25.902C24.8394 26.0678 24.7091 26.2039 24.5484 26.2921C24.3877 26.3803 24.2043 26.4164 24.0229 26.3953Z" fill="white"/>
<path d="M24.0769 26.5249H24.0193C23.7787 26.512 23.5466 26.4303 23.3496 26.2894C23.1525 26.1484 22.9985 25.9538 22.9051 25.7279C22.842 25.5343 22.8105 25.3315 22.8119 25.1276V24.9551L22.9662 25.0034C23.3139 25.1081 23.6737 25.1661 24.0362 25.1759C24.3801 25.1742 24.7235 25.1483 25.0639 25.0983L25.2148 25.0741V25.2276C25.2035 25.4875 25.137 25.7417 25.0198 25.9729C24.9301 26.1462 24.7939 26.2901 24.627 26.3878C24.4601 26.4856 24.2693 26.5331 24.0769 26.5249ZM24.0278 26.2696C24.1857 26.2873 24.3451 26.255 24.4844 26.1772C24.6237 26.0994 24.736 25.9799 24.8061 25.8349C24.881 25.6896 24.9298 25.5318 24.9503 25.3691C24.6492 25.4068 24.3463 25.4264 24.043 25.4278C23.7148 25.4227 23.3881 25.3793 23.0696 25.2984C23.0828 25.4155 23.1072 25.5311 23.1425 25.6434C23.2217 25.818 23.3457 25.9678 23.5015 26.0767C23.6573 26.1857 23.8391 26.25 24.0278 26.2627V26.2696Z" fill="#00090B"/>
<path d="M23.9746 25.342L23.9529 26.439L24.2022 26.4441L24.2238 25.3471L23.9746 25.342Z" fill="#00090B"/>
<path d="M22.5657 28.2671C22.5657 28.2671 22.8456 27.1372 23.9975 27.0337C25.3971 26.906 25.9875 28.1412 25.9875 28.1412C25.5342 28.5014 24.9692 28.685 24.3945 28.6587C23.7667 28.6405 23.1473 28.5078 22.5657 28.2671Z" fill="#D66066"/>
<path d="M24.4508 28.7779H24.3931C23.7491 28.7639 23.113 28.6318 22.5151 28.3881L22.4201 28.3449L22.4456 28.2414C22.4456 28.2294 22.7611 27.0235 23.986 26.9114C25.4551 26.7786 26.093 28.0776 26.0998 28.0896L26.1405 28.1759L26.0709 28.2397C25.6097 28.6068 25.0362 28.7973 24.4508 28.7779ZM22.7204 28.1931C23.2578 28.3951 23.8238 28.507 24.3965 28.5243C24.9047 28.5432 25.4056 28.397 25.8266 28.1069C25.643 27.7887 25.3738 27.5305 25.0507 27.3627C24.7276 27.1949 24.3641 27.1245 24.0029 27.1598C23.7139 27.1879 23.439 27.3004 23.2115 27.4837C22.9839 27.6671 22.8133 27.9134 22.7204 28.1931Z" fill="#00090B"/>
<path d="M39.0463 29.768C39.068 29.7051 39.1017 29.6472 39.1454 29.5975C39.1891 29.5479 39.2421 29.5075 39.3011 29.4787C39.3602 29.4498 39.4243 29.4331 39.4897 29.4295C39.5552 29.4258 39.6207 29.4353 39.6825 29.4575C39.7643 29.4871 39.8373 29.5376 39.8946 29.6041C41.9464 32.1319 43.2631 35.1921 43.6964 38.44C44.2409 42.4939 43.4996 44.8866 43.2315 44.9953C42.9635 45.104 42.9906 44.6503 42.9906 44.3967V43.5342C42.9906 43.5342 42.804 45.1661 42.4562 45.1385C42.1085 45.1109 42.1628 43.4255 42.1628 43.4255C42.1628 43.4255 42.0287 45.2196 41.5198 44.9781C41.0109 44.7366 41.7081 41.3554 41.1449 38.2054C40.5816 35.0554 38.8597 33.9789 38.517 32.4263C38.3983 31.8674 38.7613 30.6081 39.0463 29.768Z" fill="#FFD98E"/>
<path d="M42.4689 45.2661H42.4503C42.2484 45.2489 42.1398 44.9556 42.0855 44.5761C42.0393 44.7722 41.9301 44.9471 41.7751 45.0729C41.7295 45.1008 41.6777 45.1164 41.6246 45.1182C41.5714 45.12 41.5187 45.108 41.4714 45.0832C41.1711 44.9383 41.1796 44.3104 41.2254 42.9045C41.2661 41.6296 41.3238 39.8821 41.0269 38.2174C40.6876 36.3543 39.9395 35.2089 39.3305 34.2894C38.9046 33.6459 38.5382 33.0818 38.3974 32.4435C38.2719 31.8743 38.6145 30.6529 38.925 29.7265C38.9607 29.6204 39.0235 29.5258 39.107 29.4525C39.1904 29.3791 39.2916 29.3296 39.4 29.3091C39.5081 29.287 39.62 29.295 39.724 29.3324C39.8279 29.3697 39.92 29.435 39.9904 29.5213C42.0523 32.0709 43.3778 35.1524 43.8193 38.4227C44.3605 42.4076 43.6819 44.9487 43.2799 45.1212C43.2392 45.1407 43.1944 45.1493 43.1496 45.1463C43.1048 45.1433 43.0614 45.1287 43.0237 45.1039C42.976 45.0606 42.938 45.0074 42.9123 44.9479C42.8865 44.8884 42.8736 44.8239 42.8744 44.7589C42.7777 45.0539 42.6437 45.2661 42.4689 45.2661ZM42.1653 43.422C42.1989 43.4238 42.2304 43.4389 42.2533 43.464C42.2761 43.4891 42.2883 43.5223 42.2874 43.5565C42.2755 44.288 42.3587 44.9521 42.474 45.0125C42.5877 44.9746 42.7658 44.3363 42.8574 43.6411C42.8613 43.6082 42.8772 43.5779 42.9021 43.5565C42.9269 43.535 42.9589 43.524 42.9914 43.5255C43.0243 43.5277 43.0552 43.5424 43.0778 43.5667C43.1005 43.591 43.1132 43.6231 43.1136 43.6566V44.4657C43.1016 44.6094 43.1172 44.7541 43.1594 44.8918L43.1832 44.8831C43.3698 44.7417 44.1145 42.5163 43.5699 38.4624C43.1346 35.2466 41.8329 32.216 39.8089 29.7058C39.7712 29.6574 39.7229 29.6188 39.6677 29.593C39.6126 29.5672 39.5523 29.555 39.4916 29.5575C39.4161 29.5604 39.3433 29.5865 39.2827 29.6324C39.2221 29.6783 39.1766 29.7418 39.1523 29.8145C38.7282 31.079 38.5433 31.9933 38.6315 32.3918C38.7638 32.9921 39.1184 33.5304 39.5289 34.1531C40.1482 35.0916 40.9201 36.2612 41.261 38.1777C41.5613 39.8683 41.5036 41.6279 41.4629 42.9183C41.4341 43.7912 41.4019 44.7796 41.5664 44.859C41.5771 44.8657 41.5895 44.8693 41.602 44.8693C41.6146 44.8693 41.627 44.8657 41.6377 44.859C41.8277 44.7469 41.9668 44.0585 42.0194 43.5393C42.0228 43.5048 42.0395 43.473 42.0659 43.4511C42.0923 43.4291 42.1262 43.4186 42.1602 43.422H42.1653Z" fill="#00090B"/>
<path d="M9.45392 30.2528C9.42562 30.1927 9.38595 30.139 9.33717 30.0946C9.2884 30.0502 9.23148 30.0161 9.16969 29.9941C9.1079 29.9722 9.04246 29.9628 8.97711 29.9667C8.91176 29.9705 8.8478 29.9874 8.7889 30.0164C8.71627 30.0506 8.65326 30.1028 8.60568 30.1682C7.73539 31.3758 5.97106 34.2205 5.42479 37.8777C4.66307 42.9753 5.57408 44.8608 6.1899 45.8613C6.63268 46.5859 6.81251 45.9424 6.69884 45.3731L6.5292 44.7504C6.5292 44.7504 6.85662 45.9114 7.20779 45.8217C7.55896 45.732 7.32315 44.5313 7.32315 44.5313C7.32315 44.5313 7.5878 45.763 7.96102 45.2593C8.18156 44.9626 7.53012 43.5842 7.65226 40.6361C7.80495 36.9685 8.33085 35.9214 9.79491 33.1923C10.3276 32.2228 9.8492 31.1343 9.45392 30.2528Z" fill="#FFD98E"/>
<path d="M6.51687 46.3113C6.37606 46.3113 6.22508 46.1836 6.0707 45.9283C5.32934 44.7207 4.57101 42.7041 5.29371 37.8583C5.83149 34.2357 7.53136 31.441 8.49496 30.0955C8.55893 30.0058 8.64484 29.9348 8.74418 29.8894C8.84351 29.8439 8.95279 29.8257 9.06119 29.8365C9.16958 29.8473 9.2733 29.8868 9.36206 29.951C9.45082 30.0152 9.52151 30.1019 9.56713 30.2024C9.94884 31.0546 10.4714 32.2225 9.92 33.2558C8.48308 35.9452 7.947 36.9509 7.79262 40.6444C7.73832 41.884 7.82656 43.1258 8.05557 44.3447C8.15058 44.8967 8.19977 45.1744 8.07932 45.3349C8.04777 45.3962 7.998 45.4459 7.9371 45.4769C7.87619 45.5078 7.80724 45.5185 7.74003 45.5074C7.66158 45.4859 7.59235 45.4386 7.54324 45.3728C7.52967 45.6523 7.45672 45.899 7.25144 45.9507C7.17026 45.962 7.08762 45.9483 7.01415 45.9114C6.94068 45.8745 6.87975 45.8161 6.8392 45.7437C6.8392 45.9904 6.77813 46.2285 6.60848 46.2992C6.579 46.3092 6.54789 46.3133 6.51687 46.3113ZM9.00051 30.0851C8.94123 30.0846 8.88269 30.0986 8.82984 30.1259C8.77699 30.1533 8.73138 30.1931 8.69684 30.2421C7.74512 31.5721 6.0707 34.334 5.5397 37.8963C4.83057 42.661 5.56345 44.6241 6.28106 45.7937C6.43713 46.049 6.51687 46.056 6.51687 46.056C6.56098 46.0318 6.63393 45.7696 6.55419 45.4004L6.44222 44.9036C6.43494 44.8702 6.44058 44.8353 6.45795 44.8061C6.47533 44.7769 6.50311 44.7556 6.53553 44.7466H6.52874C6.56064 44.7389 6.59422 44.7437 6.62282 44.76C6.65142 44.7763 6.67294 44.8029 6.68312 44.8346C6.8375 45.3211 7.06822 45.7247 7.19207 45.6971C7.31591 45.6695 7.32609 45.1917 7.23957 44.6811C7.23349 44.6477 7.24034 44.6133 7.25868 44.585C7.27703 44.5567 7.30544 44.5367 7.33796 44.5292C7.37006 44.5223 7.40355 44.5281 7.4316 44.5454C7.45966 44.5627 7.48017 44.5903 7.48895 44.6224C7.57377 44.9467 7.70949 45.2331 7.79262 45.2521C7.80449 45.2521 7.83842 45.2348 7.87744 45.1813C7.91646 45.1279 7.87744 44.7587 7.80789 44.3895C7.57783 43.1528 7.49016 41.8931 7.54663 40.6357C7.70271 36.8837 8.28799 35.7865 9.70285 33.1351C10.1965 32.2139 9.72321 31.1581 9.3432 30.3094C9.31621 30.2496 9.27428 30.1981 9.22159 30.1599C9.1689 30.1218 9.10729 30.0984 9.04292 30.092L9.00051 30.0851Z" fill="#00090B"/>
</g>
</svg>
